<svg xmlns="http://www.w3.org/2000/svg" viewBox="0 -0.5 210 210" shape-rendering="crispEdges">
<metadata>Made with Pixels to Svg https://codepen.io/shshaw/pen/XbxvNj</metadata>
<path stroke="#e2d0a4" d="M0 30h210M0 31h210M0 32h210M0 33h210M0 34h210M0 35h210M0 36h210M0 37h7M0 38h7M0 39h7M0 40h7M0 41h7M0 42h7M0 43h7M0 44h7M0 45h7M0 46h7M0 47h7M0 48h7M0 49h7M0 50h7M0 51h7M15 67h7M157 67h8M15 68h7M157 68h8M15 69h7M157 69h8M15 70h7M157 70h8M15 71h7M157 71h8M15 72h7M157 72h8M15 73h7M157 73h8M15 74h7M157 74h8M15 75h7M157 75h8M15 76h7M157 76h8M15 77h7M157 77h8M15 78h7M157 78h8M15 79h7M157 79h8M15 80h7M157 80h8M15 81h7M157 81h8M15 90h7M157 90h8M15 91h7M157 91h8M15 92h7M157 92h8M15 93h7M157 93h8M15 94h7M157 94h8M15 95h7M157 95h8M15 96h7M157 96h8M15 105h7M157 105h8M15 106h7M157 106h8M15 107h7M157 107h8M15 108h7M157 108h8M15 109h7M157 109h8M15 110h7M157 110h8M15 111h7M157 111h8M15 112h7M157 112h8M15 113h7M157 113h8M15 114h7M157 114h8M15 115h7M157 115h8M15 116h7M157 116h8M15 117h7M157 117h8M15 118h7M157 118h8M15 119h7M157 119h8M157 120h8M157 121h8M157 122h8M157 123h8M157 124h8M157 125h8M157 126h8M15 127h7M15 128h7M15 129h7M15 130h7M15 131h7M15 132h7M15 133h7M15 134h7M157 135h8M157 136h8M157 137h8M157 138h8M157 139h8M157 140h8M157 141h8M15 142h7M15 143h7M15 144h7M15 145h7M15 146h7M15 147h7M15 148h7M15 149h7M15 150h7M157 150h8M15 151h7M157 151h8M15 152h7M157 152h8M15 153h7M157 153h8M15 154h7M157 154h8M15 155h7M157 155h8M15 156h7M157 156h8M15 165h7M157 165h8M15 166h7M157 166h8M15 167h7M157 167h8M15 168h7M157 168h8M15 169h7M157 169h8M15 170h7M157 170h8M15 171h7M157 171h8" />
<path stroke="#d0b67d" d="M7 37h15M30 37h22M60 37h15M82 37h15M105 37h22M142 37h38M187 37h15M7 38h15M30 38h22M60 38h15M82 38h15M105 38h22M142 38h38M187 38h15M7 39h15M30 39h22M60 39h15M82 39h15M105 39h22M142 39h38M187 39h15M7 40h15M30 40h22M60 40h15M82 40h15M105 40h22M142 40h38M187 40h15M7 41h15M30 41h22M60 41h15M82 41h15M105 41h22M142 41h38M187 41h15M7 42h15M30 42h22M60 42h15M82 42h15M105 42h22M142 42h38M187 42h15M7 43h15M30 43h22M60 43h15M82 43h15M105 43h22M142 43h38M187 43h15M7 44h15M30 44h22M60 44h15M82 44h15M105 44h22M142 44h38M187 44h15M15 52h22M45 52h7M60 52h30M105 52h15M127 52h23M165 52h30M15 53h22M45 53h7M60 53h30M105 53h15M127 53h23M165 53h30M15 54h22M45 54h7M60 54h30M105 54h15M127 54h23M165 54h30M15 55h22M45 55h7M60 55h30M105 55h15M127 55h23M165 55h30M15 56h22M45 56h7M60 56h30M105 56h15M127 56h23M165 56h30M15 57h22M45 57h7M60 57h30M105 57h15M127 57h23M165 57h30M15 58h22M45 58h7M60 58h30M105 58h15M127 58h23M165 58h30M15 59h22M45 59h7M60 59h30M105 59h15M127 59h23M165 59h30M22 67h15M165 67h22M22 68h15M165 68h22M22 69h15M165 69h22M22 70h15M165 70h22M22 71h15M165 71h22M22 72h15M165 72h22M22 73h15M165 73h22M22 74h15M165 74h22M22 75h23M165 75h7M180 75h7M22 76h23M165 76h7M180 76h7M22 77h23M165 77h7M180 77h7M22 78h23M165 78h7M180 78h7M22 79h23M165 79h7M180 79h7M22 80h23M165 80h7M180 80h7M22 81h23M165 81h7M180 81h7M22 90h15M165 90h7M22 91h15M165 91h7M22 92h15M165 92h7M22 93h15M165 93h7M22 94h15M165 94h7M22 95h15M165 95h7M22 96h15M165 96h7M30 105h15M165 105h22M30 106h15M165 106h22M30 107h15M165 107h22M30 108h15M165 108h22M30 109h15M165 109h22M30 110h15M165 110h22M30 111h15M165 111h22M37 112h8M37 113h8M37 114h8M37 115h8M37 116h8M37 117h8M37 118h8M37 119h8M172 120h15M172 121h15M172 122h15M172 123h15M172 124h15M172 125h15M172 126h15M22 127h23M22 128h23M22 129h23M22 130h23M22 131h23M22 132h23M22 133h23M22 134h23M172 135h15M172 136h15M172 137h15M172 138h15M172 139h15M172 140h15M172 141h15M22 142h8M37 142h8M22 143h8M37 143h8M22 144h8M37 144h8M22 145h8M37 145h8M22 146h8M37 146h8M22 147h8M37 147h8M22 148h8M37 148h8M22 149h8M37 149h8M30 150h7M165 150h7M180 150h7M30 151h7M165 151h7M180 151h7M30 152h7M165 152h7M180 152h7M30 153h7M165 153h7M180 153h7M30 154h7M165 154h7M180 154h7M30 155h7M165 155h7M180 155h7M30 156h7M165 156h7M180 156h7M22 165h23M165 165h22M22 166h23M165 166h22M22 167h23M165 167h22M22 168h23M165 168h22M22 169h23M165 169h22M22 170h23M165 170h22M22 171h23M165 171h22M52 172h23M82 172h23M112 172h30M150 172h7M52 173h23M82 173h23M112 173h30M150 173h7M52 174h23M82 174h23M112 174h30M150 174h7M52 175h23M82 175h23M112 175h30M150 175h7M52 176h23M82 176h23M112 176h30M150 176h7M52 177h23M82 177h23M112 177h30M150 177h7M52 178h23M82 178h23M112 178h30M150 178h7M52 179h23M82 179h23M112 179h30M150 179h7" />
<path stroke="#d5bd84" d="M22 37h8M52 37h8M75 37h7M97 37h8M127 37h15M180 37h7M22 38h8M52 38h8M75 38h7M97 38h8M127 38h15M180 38h7M22 39h8M52 39h8M75 39h7M97 39h8M127 39h15M180 39h7M22 40h8M52 40h8M75 40h7M97 40h8M127 40h15M180 40h7M22 41h8M52 41h8M75 41h7M97 41h8M127 41h15M180 41h7M22 42h8M52 42h8M75 42h7M97 42h8M127 42h15M180 42h7M22 43h8M52 43h8M75 43h7M97 43h8M127 43h15M180 43h7M22 44h8M52 44h8M75 44h7M97 44h8M127 44h15M180 44h7M37 52h8M97 52h8M150 52h7M37 53h8M97 53h8M150 53h7M37 54h8M97 54h8M150 54h7M37 55h8M97 55h8M150 55h7M37 56h8M97 56h8M150 56h7M37 57h8M97 57h8M150 57h7M37 58h8M97 58h8M150 58h7M37 59h8M97 59h8M150 59h7M37 67h8M37 68h8M37 69h8M37 70h8M37 71h8M37 72h8M37 73h8M37 74h8M172 90h8M172 91h8M172 92h8M172 93h8M172 94h8M172 95h8M172 96h8M30 112h7M30 113h7M30 114h7M30 115h7M30 116h7M30 117h7M30 118h7M30 119h7M165 135h7M165 136h7M165 137h7M165 138h7M165 139h7M165 140h7M165 141h7M30 142h7M30 143h7M30 144h7M30 145h7M30 146h7M30 147h7M30 148h7M30 149h7M37 150h8M37 151h8M37 152h8M37 153h8M37 154h8M37 155h8M37 156h8M75 172h7M105 172h7M142 172h8M75 173h7M105 173h7M142 173h8M75 174h7M105 174h7M142 174h8M75 175h7M105 175h7M142 175h8M75 176h7M105 176h7M142 176h8M75 177h7M105 177h7M142 177h8M75 178h7M105 178h7M142 178h8M75 179h7M105 179h7M142 179h8" />
<path stroke="#a38954" d="M202 37h8M202 38h8M202 39h8M202 40h8M202 41h8M202 42h8M202 43h8M202 44h8M202 45h8M202 46h8M202 47h8M202 48h8M202 49h8M202 50h8M202 51h8M195 52h7M195 53h7M195 54h7M195 55h7M195 56h7M195 57h7M195 58h7M195 59h7M15 60h45M75 60h7M97 60h8M135 60h7M150 60h45M15 61h45M75 61h7M97 61h8M135 61h7M150 61h45M15 62h45M75 62h7M97 62h8M135 62h7M150 62h45M15 63h45M75 63h7M97 63h8M135 63h7M150 63h45M15 64h45M75 64h7M97 64h8M135 64h7M150 64h45M15 65h45M75 65h7M97 65h8M135 65h7M150 65h45M15 66h45M75 66h7M97 66h8M135 66h7M150 66h45" />
<path stroke="#b99d66" d="M7 45h195M7 46h195M7 47h195M7 48h195M7 49h195M7 50h195M7 51h195M7 52h8M7 53h8M7 54h8M7 55h8M7 56h8M7 57h8M7 58h8M7 59h8" />
<path stroke="#b99e66" d="M52 52h8M90 52h7M157 52h8M52 53h8M90 53h7M157 53h8M52 54h8M90 54h7M157 54h8M52 55h8M90 55h7M157 55h8M52 56h8M90 56h7M157 56h8M52 57h8M90 57h7M157 57h8M52 58h8M90 58h7M157 58h8M52 59h8M90 59h7M157 59h8M22 82h8M37 82h8M165 82h22M22 83h8M37 83h8M165 83h22M22 84h8M37 84h8M165 84h22M22 85h8M37 85h8M165 85h22M22 86h8M37 86h8M165 86h22M22 87h8M37 87h8M165 87h22M22 88h8M37 88h8M165 88h22M22 89h8M37 89h8M165 89h22M180 90h7M180 91h7M180 92h7M180 93h7M180 94h7M180 95h7M180 96h7M30 97h15M165 97h22M30 98h15M165 98h22M30 99h15M165 99h22M30 100h15M165 100h22M30 101h15M165 101h22M30 102h15M165 102h22M30 103h15M165 103h22M30 104h15M165 104h22M22 105h8M22 106h8M22 107h8M22 108h8M22 109h8M22 110h8M22 111h8M22 112h8M172 112h15M22 113h8M172 113h15M22 114h8M172 114h15M22 115h8M172 115h15M22 116h8M172 116h15M22 117h8M172 117h15M22 118h8M172 118h15M22 119h8M172 119h15M22 120h8M37 120h8M165 120h7M22 121h8M37 121h8M165 121h7M22 122h8M37 122h8M165 122h7M22 123h8M37 123h8M165 123h7M22 124h8M37 124h8M165 124h7M22 125h8M37 125h8M165 125h7M22 126h8M37 126h8M165 126h7M165 127h15M165 128h15M165 129h15M165 130h15M165 131h15M165 132h15M165 133h15M165 134h15M22 135h23M22 136h23M22 137h23M22 138h23M22 139h23M22 140h23M22 141h23M165 142h7M180 142h7M165 143h7M180 143h7M165 144h7M180 144h7M165 145h7M180 145h7M165 146h7M180 146h7M165 147h7M180 147h7M165 148h7M180 148h7M165 149h7M180 149h7M172 150h8M172 151h8M172 152h8M172 153h8M172 154h8M172 155h8M172 156h8" />
<path stroke="#c2a670" d="M120 52h7M120 53h7M120 54h7M120 55h7M120 56h7M120 57h7M120 58h7M120 59h7M172 75h8M172 76h8M172 77h8M172 78h8M172 79h8M172 80h8M172 81h8M30 82h7M30 83h7M30 84h7M30 85h7M30 86h7M30 87h7M30 88h7M30 89h7M37 90h8M37 91h8M37 92h8M37 93h8M37 94h8M37 95h8M37 96h8M22 97h8M22 98h8M22 99h8M22 100h8M22 101h8M22 102h8M22 103h8M22 104h8M165 112h7M165 113h7M165 114h7M165 115h7M165 116h7M165 117h7M165 118h7M165 119h7M30 120h7M30 121h7M30 122h7M30 123h7M30 124h7M30 125h7M30 126h7M180 127h7M180 128h7M180 129h7M180 130h7M180 131h7M180 132h7M180 133h7M180 134h7M172 142h8M172 143h8M172 144h8M172 145h8M172 146h8M172 147h8M172 148h8M172 149h8M22 150h8M22 151h8M22 152h8M22 153h8M22 154h8M22 155h8M22 156h8" />
<path stroke="#8f7648" d="M60 60h15M82 60h15M105 60h30M142 60h8M60 61h15M82 61h15M105 61h30M142 61h8M60 62h15M82 62h15M105 62h30M142 62h8M60 63h15M82 63h15M105 63h30M142 63h8M60 64h15M82 64h15M105 64h30M142 64h8M60 65h15M82 65h15M105 65h30M142 65h8M60 66h15M82 66h15M105 66h30M142 66h8" />
<path stroke="#947a4a" d="M45 67h7M187 67h8M45 68h7M187 68h8M45 69h7M187 69h8M45 70h7M187 70h8M45 71h7M187 71h8M45 72h7M187 72h8M45 73h7M187 73h8M45 74h7M187 74h8M45 75h7M187 75h8M45 76h7M187 76h8M45 77h7M187 77h8M45 78h7M187 78h8M45 79h7M187 79h8M45 80h7M187 80h8M45 81h7M187 81h8M45 82h7M187 82h8M45 83h7M187 83h8M45 84h7M187 84h8M45 85h7M187 85h8M45 86h7M187 86h8M45 87h7M187 87h8M45 88h7M187 88h8M45 89h7M187 89h8M45 90h7M187 90h8M45 91h7M187 91h8M45 92h7M187 92h8M45 93h7M187 93h8M45 94h7M187 94h8M45 95h7M187 95h8M45 96h7M187 96h8M45 97h7M187 97h8M45 98h7M187 98h8M45 99h7M187 99h8M45 100h7M187 100h8M45 101h7M187 101h8M45 102h7M187 102h8M45 103h7M187 103h8M45 104h7M187 104h8M45 105h7M187 105h8M45 106h7M187 106h8M45 107h7M187 107h8M45 108h7M187 108h8M45 109h7M187 109h8M45 110h7M187 110h8M45 111h7M187 111h8M45 112h7M187 112h8M45 113h7M187 113h8M45 114h7M187 114h8M45 115h7M187 115h8M45 116h7M187 116h8M45 117h7M187 117h8M45 118h7M187 118h8M45 119h7M187 119h8M45 120h7M187 120h8M45 121h7M187 121h8M45 122h7M187 122h8M45 123h7M187 123h8M45 124h7M187 124h8M45 125h7M187 125h8M45 126h7M187 126h8M45 127h7M187 127h8M45 128h7M187 128h8M45 129h7M187 129h8M45 130h7M187 130h8M45 131h7M187 131h8M45 132h7M187 132h8M45 133h7M187 133h8M45 134h7M187 134h8M45 135h7M187 135h8M45 136h7M187 136h8M45 137h7M187 137h8M45 138h7M187 138h8M45 139h7M187 139h8M45 140h7M187 140h8M45 141h7M187 141h8M45 142h7M187 142h8M45 143h7M187 143h8M45 144h7M187 144h8M45 145h7M187 145h8M45 146h7M187 146h8M45 147h7M187 147h8M45 148h7M187 148h8M45 149h7M187 149h8M45 150h7M187 150h8M45 151h7M187 151h8M45 152h7M187 152h8M45 153h7M187 153h8M45 154h7M187 154h8M45 155h7M187 155h8M45 156h7M187 156h8M45 165h7M187 165h8M45 166h7M187 166h8M45 167h7M187 167h8M45 168h7M187 168h8M45 169h7M187 169h8M45 170h7M187 170h8M45 171h7M187 171h8" />
<path stroke="#6a4a21" d="M52 67h8M52 68h8M52 69h8M52 70h8M52 71h8M52 72h8M52 73h8M52 74h8" />
<path stroke="#714d21" d="M60 67h7M150 67h7M60 68h7M150 68h7M60 69h7M150 69h7M60 70h7M150 70h7M60 71h7M150 71h7M60 72h7M150 72h7M60 73h7M150 73h7M60 74h7M150 74h7" />
<path stroke="#774f21" d="M67 67h8M67 68h8M67 69h8M67 70h8M67 71h8M67 72h8M67 73h8M67 74h8" />
<path stroke="#7e5221" d="M75 67h7M135 67h7M75 68h7M135 68h7M75 69h7M135 69h7M75 70h7M135 70h7M75 71h7M135 71h7M75 72h7M135 72h7M75 73h7M135 73h7M75 74h7M135 74h7" />
<path stroke="#794118" d="M82 67h8M82 68h8M82 69h8M82 70h8M82 71h8M82 72h8M82 73h8M82 74h8" />
<path stroke="#865721" d="M90 67h7M90 68h7M90 69h7M90 70h7M90 71h7M90 72h7M90 73h7M90 74h7" />
<path stroke="#895821" d="M97 67h8M97 68h8M97 69h8M97 70h8M97 71h8M97 72h8M97 73h8M97 74h8" />
<path stroke="#8a5821" d="M105 67h7M105 68h7M105 69h7M105 70h7M105 71h7M105 72h7M105 73h7M105 74h7M52 90h8M52 91h8M52 92h8M52 93h8M52 94h8M52 95h8M52 96h8" />
<path stroke="#8b5921" d="M112 67h8M112 68h8M112 69h8M112 70h8M112 71h8M112 72h8M112 73h8M112 74h8" />
<path stroke="#7f4418" d="M120 67h7M120 68h7M120 69h7M120 70h7M120 71h7M120 72h7M120 73h7M120 74h7" />
<path stroke="#845521" d="M127 67h8M127 68h8M127 69h8M127 70h8M127 71h8M127 72h8M127 73h8M127 74h8" />
<path stroke="#784f21" d="M142 67h8M142 68h8M142 69h8M142 70h8M142 71h8M142 72h8M142 73h8M142 74h8" />
<path stroke="#683c18" d="M52 75h8M52 76h8M52 77h8M52 78h8M52 79h8M52 80h8M52 81h8" />
<path stroke="#723f18" d="M60 75h7M60 76h7M60 77h7M60 78h7M60 79h7M60 80h7M60 81h7" />
<path stroke="#7b4118" d="M67 75h8M67 76h8M67 77h8M67 78h8M67 79h8M67 80h8M67 81h8" />
<path stroke="#834518" d="M75 75h7M75 76h7M75 77h7M75 78h7M75 79h7M75 80h7M75 81h7" />
<path stroke="#8b4818" d="M82 75h8M82 76h8M82 77h8M82 78h8M82 79h8M82 80h8M82 81h8" />
<path stroke="#904918" d="M90 75h7M120 75h7M90 76h7M120 76h7M90 77h7M120 77h7M90 78h7M120 78h7M90 79h7M120 79h7M90 80h7M120 80h7M90 81h7M120 81h7" />
<path stroke="#924a18" d="M97 75h8M97 76h8M97 77h8M97 78h8M97 79h8M97 80h8M97 81h8" />
<path stroke="#944b18" d="M105 75h15M105 76h15M105 77h15M105 78h15M105 79h15M105 80h15M105 81h15M135 82h7M135 83h7M135 84h7M135 85h7M135 86h7M135 87h7M135 88h7M135 89h7" />
<path stroke="#8d4818" d="M127 75h8M127 76h8M127 77h8M127 78h8M127 79h8M127 80h8M127 81h8M60 90h7M60 91h7M60 92h7M60 93h7M60 94h7M60 95h7M60 96h7M52 97h8M52 98h8M52 99h8M52 100h8M52 101h8M52 102h8M52 103h8M52 104h8" />
<path stroke="#854518" d="M135 75h7M135 76h7M135 77h7M135 78h7M135 79h7M135 80h7M135 81h7" />
<path stroke="#7c4318" d="M142 75h8M142 76h8M142 77h8M142 78h8M142 79h8M142 80h8M142 81h8" />
<path stroke="#743f18" d="M150 75h7M150 76h7M150 77h7M150 78h7M150 79h7M150 80h7M150 81h7" />
<path stroke="#d1ba8c" d="M15 82h7M157 82h8M15 83h7M157 83h8M15 84h7M157 84h8M15 85h7M157 85h8M15 86h7M157 86h8M15 87h7M157 87h8M15 88h7M157 88h8M15 89h7M157 89h8M15 97h7M157 97h8M15 98h7M157 98h8M15 99h7M157 99h8M15 100h7M157 100h8M15 101h7M157 101h8M15 102h7M157 102h8M15 103h7M157 103h8M15 104h7M157 104h8M15 120h7M15 121h7M15 122h7M15 123h7M15 124h7M15 125h7M15 126h7M157 127h8M157 128h8M157 129h8M157 130h8M157 131h8M157 132h8M157 133h8M157 134h8M15 135h7M15 136h7M15 137h7M15 138h7M15 139h7M15 140h7M15 141h7M157 142h8M157 143h8M157 144h8M157 145h8M157 146h8M157 147h8M157 148h8M157 149h8" />
<path stroke="#7f5221" d="M52 82h8M52 83h8M52 84h8M52 85h8M52 86h8M52 87h8M52 88h8M52 89h8" />
<path stroke="#804418" d="M60 82h7M60 83h7M60 84h7M60 85h7M60 86h7M60 87h7M60 88h7M60 89h7" />
<path stroke="#9a6a29" d="M67 82h8M67 83h8M67 84h8M67 85h8M67 86h8M67 87h8M67 88h8M67 89h8" />
<path stroke="#bf5e00" d="M75 82h7M75 83h7M75 84h7M75 85h7M75 86h7M75 87h7M75 88h7M75 89h7" />
<path stroke="#a97329" d="M82 82h8M82 83h8M82 84h8M82 85h8M82 86h8M82 87h8M82 88h8M82 89h8" />
<path stroke="#a96621" d="M90 82h7M90 83h7M90 84h7M90 85h7M90 86h7M90 87h7M90 88h7M90 89h7" />
<path stroke="#a55018" d="M97 82h8M97 83h8M97 84h8M97 85h8M97 86h8M97 87h8M97 88h8M97 89h8M135 90h7M135 91h7M135 92h7M135 93h7M135 94h7M135 95h7M135 96h7" />
<path stroke="#b27829" d="M105 82h7M105 83h7M105 84h7M105 85h7M105 86h7M105 87h7M105 88h7M105 89h7" />
<path stroke="#c96600" d="M112 82h8M112 83h8M112 84h8M112 85h8M112 86h8M112 87h8M112 88h8M112 89h8" />
<path stroke="#ae7629" d="M120 82h7M120 83h7M120 84h7M120 85h7M120 86h7M120 87h7M120 88h7M120 89h7" />
<path stroke="#a46421" d="M127 82h8M127 83h8M127 84h8M127 85h8M127 86h8M127 87h8M127 88h8M127 89h8" />
<path stroke="#9b6b29" d="M142 82h8M142 83h8M142 84h8M142 85h8M142 86h8M142 87h8M142 88h8M142 89h8" />
<path stroke="#916529" d="M150 82h7M150 83h7M150 84h7M150 85h7M150 86h7M150 87h7M150 88h7M150 89h7" />
<path stroke="#a26321" d="M67 90h8M67 91h8M67 92h8M67 93h8M67 94h8M67 95h8M67 96h8" />
<path stroke="#ab6721" d="M75 90h7M75 91h7M75 92h7M75 93h7M75 94h7M75 95h7M75 96h7" />
<path stroke="#b36b21" d="M82 90h8M82 91h8M82 92h8M82 93h8M82 94h8M82 95h8M82 96h8" />
<path stroke="#b96f21" d="M90 90h7M90 91h7M90 92h7M90 93h7M90 94h7M90 95h7M90 96h7M150 112h7M150 113h7M150 114h7M150 115h7M150 116h7M150 117h7M150 118h7M150 119h7" />
<path stroke="#d36f00" d="M97 90h8M97 91h8M97 92h8M97 93h8M97 94h8M97 95h8M97 96h8" />
<path stroke="#bd7121" d="M105 90h15M105 91h15M105 92h15M105 93h15M105 94h15M105 95h15M105 96h15" />
<path stroke="#d16d00" d="M120 90h7M120 91h7M120 92h7M120 93h7M120 94h7M120 95h7M120 96h7" />
<path stroke="#b46b21" d="M127 90h8M127 91h8M127 92h8M127 93h8M127 94h8M127 95h8M127 96h8" />
<path stroke="#a36321" d="M142 90h8M142 91h8M142 92h8M142 93h8M142 94h8M142 95h8M142 96h8" />
<path stroke="#985f21" d="M150 90h7M150 91h7M150 92h7M150 93h7M150 94h7M150 95h7M150 96h7" />
<path stroke="#9c4d18" d="M60 97h7M60 98h7M60 99h7M60 100h7M60 101h7M60 102h7M60 103h7M60 104h7" />
<path stroke="#a95218" d="M67 97h8M67 98h8M67 99h8M67 100h8M67 101h8M67 102h8M67 103h8M67 104h8" />
<path stroke="#b45718" d="M75 97h7M75 98h7M75 99h7M75 100h7M75 101h7M75 102h7M75 103h7M75 104h7" />
<path stroke="#bc5a18" d="M82 97h8M82 98h8M82 99h8M82 100h8M82 101h8M82 102h8M82 103h8M82 104h8" />
<path stroke="#da7400" d="M90 97h7M90 98h7M90 99h7M90 100h7M90 101h7M90 102h7M90 103h7M90 104h7" />
<path stroke="#dc7700" d="M97 97h8M97 98h8M97 99h8M97 100h8M97 101h8M97 102h8M97 103h8M97 104h8" />
<path stroke="#c75e18" d="M105 97h7M105 98h7M105 99h7M105 100h7M105 101h7M105 102h7M105 103h7M105 104h7M67 120h8M67 121h8M67 122h8M67 123h8M67 124h8M67 125h8M67 126h8" />
<path stroke="#c55e18" d="M112 97h8M112 98h8M112 99h8M112 100h8M112 101h8M112 102h8M112 103h8M112 104h8" />
<path stroke="#db7400" d="M120 97h7M120 98h7M120 99h7M120 100h7M120 101h7M120 102h7M120 103h7M120 104h7" />
<path stroke="#bd5a18" d="M127 97h8M127 98h8M127 99h8M127 100h8M127 101h8M127 102h8M127 103h8M127 104h8" />
<path stroke="#d26d00" d="M135 97h7M135 98h7M135 99h7M135 100h7M135 101h7M135 102h7M135 103h7M135 104h7" />
<path stroke="#aa5218" d="M142 97h8M142 98h8M142 99h8M142 100h8M142 101h8M142 102h8M142 103h8M142 104h8M52 120h8M52 121h8M52 122h8M52 123h8M52 124h8M52 125h8M52 126h8" />
<path stroke="#9d4d18" d="M150 97h7M150 98h7M150 99h7M150 100h7M150 101h7M150 102h7M150 103h7M150 104h7" />
<path stroke="#a67129" d="M52 105h8M52 106h8M52 107h8M52 108h8M52 109h8M52 110h8M52 111h8" />
<path stroke="#b47929" d="M60 105h7M60 106h7M60 107h7M60 108h7M60 109h7M60 110h7M60 111h7" />
<path stroke="#be8029" d="M67 105h8M67 106h8M67 107h8M67 108h8M67 109h8M67 110h8M67 111h8" />
<path stroke="#fff000" d="M75 105h7M75 106h7M75 107h7M75 108h7M75 109h7M75 110h7M75 111h7" />
<path stroke="#c95f18" d="M82 105h8M82 106h8M82 107h8M82 108h8M82 109h8M82 110h8M82 111h8M142 120h8M142 121h8M142 122h8M142 123h8M142 124h8M142 125h8M142 126h8" />
<path stroke="#fcd727" d="M90 105h7M90 106h7M90 107h7M90 108h7M90 109h7M90 110h7M90 111h7" />
<path stroke="#e47d00" d="M97 105h8M97 106h8M97 107h8M97 108h8M97 109h8M97 110h8M97 111h8M75 120h7M75 121h7M75 122h7M75 123h7M75 124h7M75 125h7M75 126h7" />
<path stroke="#fff300" d="M105 105h15M105 106h15M105 107h15M105 108h15M105 109h15M105 110h15M105 111h15M82 112h8M82 113h8M82 114h8M82 115h8M82 116h8M82 117h8M82 118h8M82 119h8" />
<path stroke="#cf6218" d="M120 105h7M120 106h7M120 107h7M120 108h7M120 109h7M120 110h7M120 111h7" />
<path stroke="#df7900" d="M127 105h8M127 106h8M127 107h8M127 108h8M127 109h8M127 110h8M127 111h8" />
<path stroke="#c98829" d="M135 105h7M135 106h7M135 107h7M135 108h7M135 109h7M135 110h7M135 111h7M150 127h7M150 128h7M150 129h7M150 130h7M150 131h7M150 132h7M150 133h7M150 134h7" />
<path stroke="#bf8129" d="M142 105h8M142 106h8M142 107h8M142 108h8M142 109h8M142 110h8M142 111h8" />
<path stroke="#af6921" d="M150 105h7M150 106h7M150 107h7M150 108h7M150 109h7M150 110h7M150 111h7" />
<path stroke="#aa6721" d="M52 112h8M52 113h8M52 114h8M52 115h8M52 116h8M52 117h8M52 118h8M52 119h8" />
<path stroke="#b76d21" d="M60 112h7M60 113h7M60 114h7M60 115h7M60 116h7M60 117h7M60 118h7M60 119h7" />
<path stroke="#c57621" d="M67 112h8M142 112h8M67 113h8M142 113h8M67 114h8M142 114h8M67 115h8M142 115h8M67 116h8M142 116h8M67 117h8M142 117h8M67 118h8M142 118h8M67 119h8M142 119h8" />
<path stroke="#ce7b21" d="M75 112h7M135 112h7M75 113h7M135 113h7M75 114h7M135 114h7M75 115h7M135 115h7M75 116h7M135 116h7M75 117h7M135 117h7M75 118h7M135 118h7M75 119h7M135 119h7" />
<path stroke="#fde127" d="M90 112h7M120 112h7M90 113h7M120 113h7M90 114h7M120 114h7M90 115h7M120 115h7M90 116h7M120 116h7M90 117h7M120 117h7M90 118h7M120 118h7M90 119h7M120 119h7" />
<path stroke="#fde327" d="M97 112h8M112 112h8M97 113h8M112 113h8M97 114h8M112 114h8M97 115h8M112 115h8M97 116h8M112 116h8M97 117h8M112 117h8M97 118h8M112 118h8M97 119h8M112 119h8" />
<path stroke="#fff500" d="M105 112h7M105 113h7M105 114h7M105 115h7M105 116h7M105 117h7M105 118h7M105 119h7M75 135h7M75 136h7M75 137h7M75 138h7M75 139h7M75 140h7M75 141h7" />
<path stroke="#d58021" d="M127 112h8M127 113h8M127 114h8M127 115h8M127 116h8M127 117h8M127 118h8M127 119h8" />
<path stroke="#ba5918" d="M60 120h7M60 121h7M60 122h7M60 123h7M60 124h7M60 125h7M60 126h7" />
<path stroke="#fde227" d="M82 120h8M127 120h8M82 121h8M127 121h8M82 122h8M127 122h8M82 123h8M127 123h8M82 124h8M127 124h8M82 125h8M127 125h8M82 126h8M127 126h8M75 142h7M75 143h7M75 144h7M75 145h7M75 146h7M75 147h7M75 148h7M75 149h7" />
<path stroke="#fff700" d="M90 120h7M112 120h8M90 121h7M112 121h8M90 122h7M112 122h8M90 123h7M112 123h8M90 124h7M112 124h8M90 125h7M112 125h8M90 126h7M112 126h8M97 127h8M127 127h8M97 128h8M127 128h8M97 129h8M127 129h8M97 130h8M127 130h8M97 131h8M127 131h8M97 132h8M127 132h8M97 133h8M127 133h8M97 134h8M127 134h8M120 135h7M120 136h7M120 137h7M120 138h7M120 139h7M120 140h7M120 141h7M82 142h8M127 142h8M82 143h8M127 143h8M82 144h8M127 144h8M82 145h8M127 145h8M82 146h8M127 146h8M82 147h8M127 147h8M82 148h8M127 148h8M82 149h8M127 149h8M112 150h8M112 151h8M112 152h8M112 153h8M112 154h8M112 155h8M112 156h8" />
<path stroke="#fde627" d="M97 120h8M97 121h8M97 122h8M97 123h8M97 124h8M97 125h8M97 126h8M127 135h8M127 136h8M127 137h8M127 138h8M127 139h8M127 140h8M127 141h8" />
<path stroke="#d09c39" d="M105 120h7M105 121h7M105 122h7M105 123h7M105 124h7M105 125h7M105 126h7M105 127h7M120 127h7M105 128h7M120 128h7M105 129h7M120 129h7M105 130h7M120 130h7M105 131h7M120 131h7M105 132h7M120 132h7M105 133h7M120 133h7M105 134h7M120 134h7" />
<path stroke="#ea8700" d="M120 120h7M120 121h7M120 122h7M120 123h7M120 124h7M120 125h7M120 126h7" />
<path stroke="#d26318" d="M135 120h7M135 121h7M135 122h7M135 123h7M135 124h7M135 125h7M135 126h7" />
<path stroke="#bb5a18" d="M150 120h7M150 121h7M150 122h7M150 123h7M150 124h7M150 125h7M150 126h7" />
<path stroke="#b56c21" d="M52 127h8M52 128h8M52 129h8M52 130h8M52 131h8M52 132h8M52 133h8M52 134h8" />
<path stroke="#bf5b18" d="M60 127h7M60 128h7M60 129h7M60 130h7M60 131h7M60 132h7M60 133h7M60 134h7" />
<path stroke="#ce6b1d" d="M67 127h8M67 128h8M67 129h8M67 130h8M67 131h8M67 132h8M67 133h8M67 134h8" />
<path stroke="#e68100" d="M75 127h7M135 127h7M75 128h7M135 128h7M75 129h7M135 129h7M75 130h7M135 130h7M75 131h7M135 131h7M75 132h7M135 132h7M75 133h7M135 133h7M75 134h7M135 134h7" />
<path stroke="#b78730" d="M82 127h8M82 128h8M82 129h8M82 130h8M82 131h8M82 132h8M82 133h8M82 134h8M82 150h8M82 151h8M82 152h8M82 153h8M82 154h8M82 155h8M82 156h8" />
<path stroke="#d1a02e" d="M90 127h7M90 128h7M90 129h7M90 130h7M90 131h7M90 132h7M90 133h7M90 134h7M105 135h7M105 136h7M105 137h7M105 138h7M105 139h7M105 140h7M105 141h7" />
<path stroke="#fde727" d="M112 127h8M112 128h8M112 129h8M112 130h8M112 131h8M112 132h8M112 133h8M112 134h8" />
<path stroke="#d49029" d="M142 127h8M142 128h8M142 129h8M142 130h8M142 131h8M142 132h8M142 133h8M142 134h8" />
<path stroke="#b86f21" d="M52 135h8M52 136h8M52 137h8M52 138h8M52 139h8M52 140h8M52 141h8" />
<path stroke="#bd460f" d="M60 135h7M60 136h7M60 137h7M60 138h7M60 139h7M60 140h7M60 141h7" />
<path stroke="#e27c00" d="M67 135h8M67 136h8M67 137h8M67 138h8M67 139h8M67 140h8M67 141h8" />
<path stroke="#876b13" d="M82 135h8M82 136h8M82 137h8M82 138h8M82 139h8M82 140h8M82 141h8" />
<path stroke="#b78c24" d="M90 135h15M90 136h15M90 137h15M90 138h15M90 139h15M90 140h15M90 141h15M120 142h7M120 143h7M120 144h7M120 145h7M120 146h7M120 147h7M120 148h7M120 149h7" />
<path stroke="#b78e24" d="M112 135h8M112 136h8M112 137h8M112 138h8M112 139h8M112 140h8M112 141h8" />
<path stroke="#e88300" d="M135 135h7M135 136h7M135 137h7M135 138h7M135 139h7M135 140h7M135 141h7" />
<path stroke="#d05f17" d="M142 135h8M142 136h8M142 137h8M142 138h8M142 139h8M142 140h8M142 141h8" />
<path stroke="#c97821" d="M150 135h7M150 136h7M150 137h7M150 138h7M150 139h7M150 140h7M150 141h7" />
<path stroke="#ae410f" d="M52 142h8M52 143h8M52 144h8M52 145h8M52 146h8M52 147h8M52 148h8M52 149h8" />
<path stroke="#be470f" d="M60 142h7M60 143h7M60 144h7M60 145h7M60 146h7M60 147h7M60 148h7M60 149h7" />
<path stroke="#cc4b0f" d="M67 142h8M67 143h8M67 144h8M67 145h8M67 146h8M67 147h8M67 148h8M67 149h8" />
<path stroke="#876c13" d="M90 142h7M90 143h7M90 144h7M90 145h7M90 146h7M90 147h7M90 148h7M90 149h7M97 150h8M120 150h7M97 151h8M120 151h7M97 152h8M120 152h7M97 153h8M120 153h7M97 154h8M120 154h7M97 155h8M120 155h7M97 156h8M120 156h7" />
<path stroke="#cc862e" d="M97 142h8M97 143h8M97 144h8M97 145h8M97 146h8M97 147h8M97 148h8M97 149h8" />
<path stroke="#866820" d="M105 142h7M105 143h7M105 144h7M105 145h7M105 146h7M105 147h7M105 148h7M105 149h7M105 150h7M105 151h7M105 152h7M105 153h7M105 154h7M105 155h7M105 156h7" />
<path stroke="#876f13" d="M112 142h8M112 143h8M112 144h8M112 145h8M112 146h8M112 147h8M112 148h8M112 149h8" />
<path stroke="#d64f0f" d="M135 142h7M135 143h7M135 144h7M135 145h7M135 146h7M135 147h7M135 148h7M135 149h7" />
<path stroke="#ce4c0f" d="M142 142h8M142 143h8M142 144h8M142 145h8M142 146h8M142 147h8M142 148h8M142 149h8" />
<path stroke="#c1470f" d="M150 142h7M150 143h7M150 144h7M150 145h7M150 146h7M150 147h7M150 148h7M150 149h7" />
<path stroke="#b35f1d" d="M52 150h8M52 151h8M52 152h8M52 153h8M52 154h8M52 155h8M52 156h8" />
<path stroke="#c3661d" d="M60 150h7M60 151h7M60 152h7M60 153h7M60 154h7M60 155h7M60 156h7" />
<path stroke="#cf6c1d" d="M67 150h8M67 151h8M67 152h8M67 153h8M67 154h8M67 155h8M67 156h8" />
<path stroke="#d09b39" d="M75 150h7M75 151h7M75 152h7M75 153h7M75 154h7M75 155h7M75 156h7" />
<path stroke="#af652b" d="M90 150h7M90 151h7M90 152h7M90 153h7M90 154h7M90 155h7M90 156h7" />
<path stroke="#ae642b" d="M127 150h8M127 151h8M127 152h8M127 153h8M127 154h8M127 155h8M127 156h8" />
<path stroke="#d8731d" d="M135 150h7M135 151h7M135 152h7M135 153h7M135 154h7M135 155h7M135 156h7" />
<path stroke="#d16f1d" d="M142 150h8M142 151h8M142 152h8M142 153h8M142 154h8M142 155h8M142 156h8" />
<path stroke="#c15917" d="M150 150h7M150 151h7M150 152h7M150 153h7M150 154h7M150 155h7M150 156h7" />
<path stroke="#d1b372" d="M15 157h7M157 157h8M15 158h7M157 158h8M15 159h7M157 159h8M15 160h7M157 160h8M15 161h7M157 161h8M15 162h7M157 162h8M15 163h7M157 163h8M15 164h7M157 164h8M15 172h7M157 172h8M15 173h7M157 173h8M15 174h7M157 174h8M15 175h7M157 175h8M15 176h7M157 176h8M15 177h7M157 177h8M15 178h7M157 178h8M15 179h7M157 179h8" />
<path stroke="#ad8737" d="M22 157h23M165 157h22M22 158h23M165 158h22M22 159h23M165 159h22M22 160h23M165 160h22M22 161h23M165 161h22M22 162h23M165 162h22M22 163h23M165 163h22M22 164h23M165 164h22M22 172h23M165 172h22M22 173h23M165 173h22M22 174h23M165 174h22M22 175h23M165 175h22M22 176h23M165 176h22M22 177h23M165 177h22M22 178h23M165 178h22M22 179h23M165 179h22" />
<path stroke="#694e1f" d="M45 157h7M187 157h8M45 158h7M187 158h8M45 159h7M187 159h8M45 160h7M187 160h8M45 161h7M187 161h8M45 162h7M187 162h8M45 163h7M187 163h8M45 164h7M187 164h8M45 172h7M187 172h8M45 173h7M187 173h8M45 174h7M187 174h8M45 175h7M187 175h8M45 176h7M187 176h8M45 177h7M187 177h8M45 178h7M187 178h8M45 179h7M187 179h8" />
<path stroke="#ac5017" d="M52 157h8M52 158h8M52 159h8M52 160h8M52 161h8M52 162h8M52 163h8M52 164h8" />
<path stroke="#bd5717" d="M60 157h7M60 158h7M60 159h7M60 160h7M60 161h7M60 162h7M60 163h7M60 164h7" />
<path stroke="#c37a35" d="M67 157h8M67 158h8M67 159h8M67 160h8M67 161h8M67 162h8M67 163h8M67 164h8" />
<path stroke="#ab602a" d="M75 157h7M75 158h7M75 159h7M75 160h7M75 161h7M75 162h7M75 163h7M75 164h7" />
<path stroke="#7c3c19" d="M82 157h8M82 158h8M82 159h8M82 160h8M82 161h8M82 162h8M82 163h8M82 164h8" />
<path stroke="#866720" d="M90 157h7M90 158h7M90 159h7M90 160h7M90 161h7M90 162h7M90 163h7M90 164h7" />
<path stroke="#dc520f" d="M97 157h8M97 158h8M97 159h8M97 160h8M97 161h8M97 162h8M97 163h8M97 164h8" />
<path stroke="#af622a" d="M105 157h7M105 158h7M105 159h7M105 160h7M105 161h7M105 162h7M105 163h7M105 164h7" />
<path stroke="#ae622a" d="M112 157h8M112 158h8M112 159h8M112 160h8M112 161h8M112 162h8M112 163h8M112 164h8" />
<path stroke="#da3f0a" d="M120 157h7M120 158h7M120 159h7M120 160h7M120 161h7M120 162h7M120 163h7M120 164h7" />
<path stroke="#7c401a" d="M127 157h8M127 158h8M127 159h8M127 160h8M127 161h8M127 162h8M127 163h8M127 164h8" />
<path stroke="#ac662d" d="M135 157h7M135 158h7M135 159h7M135 160h7M135 161h7M135 162h7M135 163h7M135 164h7" />
<path stroke="#cb5d17" d="M142 157h8M142 158h8M142 159h8M142 160h8M142 161h8M142 162h8M142 163h8M142 164h8" />
<path stroke="#bd5817" d="M150 157h7M150 158h7M150 159h7M150 160h7M150 161h7M150 162h7M150 163h7M150 164h7" />
<path stroke="#d6bd82" d="M52 165h105M52 166h105M52 167h105M52 168h105M52 169h105M52 170h105M52 171h105" />
</svg>